<?xml version="1.0" encoding="utf-8"?>
<!-- Generator: Adobe Illustrator 16.0.0, SVG Export Plug-In . SVG Version: 6.00 Build 0)  -->
<!DOCTYPE svg PUBLIC "-//W3C//DTD SVG 1.1//EN" "http://www.w3.org/Graphics/SVG/1.1/DTD/svg11.dtd">
<svg version="1.1" xmlns="http://www.w3.org/2000/svg" xmlns:xlink="http://www.w3.org/1999/xlink" x="0px" y="0px" width="31.65px"
	 height="31px" viewBox="0 0 31.65 31" enable-background="new 0 0 31.65 31" xml:space="preserve">
<g id="Layer_1">
</g>
<g id="Layer_2">
	<g>
		<g>
			<path fill="#FFFFFF" d="M3.577,29.471c-1.378,0-2.5-1.122-2.5-2.5V3.222c0-1.378,1.122-2.5,2.5-2.5h24.5
				c1.378,0,2.5,1.122,2.5,2.5v23.749c0,1.378-1.122,2.5-2.5,2.5H3.577z"/>
			<g>
				<path fill="#B3B3B3" d="M28.077,1.222c1.103,0,2,0.897,2,2v23.749c0,1.103-0.897,2-2,2h-24.5c-1.103,0-2-0.897-2-2V3.222
					c0-1.103,0.897-2,2-2H28.077 M28.077,0.222h-24.5c-1.65,0-3,1.35-3,3v23.749c0,1.65,1.35,3,3,3h24.5c1.65,0,3-1.35,3-3V3.222
					C31.077,1.572,29.727,0.222,28.077,0.222L28.077,0.222z"/>
			</g>
		</g>
		<path fill="#B3B3B3" d="M0.577,17.472v-14c0-1.65,1.351-3,3-3h24.5c1.65,0,3,1.35,3,3v14"/>
		<path fill="#FFFFFF" d="M31,6.707V5.768l-4.864-0.129c0.645-1.207,1.017-1.979,1.114-2.321c0.104-0.373,0.086-0.627-0.025-0.775
			c-0.532-0.711-1.679-0.957-2.485-0.648c-0.666,0.254-1.117,0.889-1.083,1.615c0.03,0.643,1.074,0.396,1.005,0.121
			c-0.21-0.84,1.327-1.145,1.801-0.58c0.132,0.154-0.324,0.857-0.404,1.01c-0.217,0.422-0.439,0.838-0.663,1.256
			c-0.415,0.777-0.832,1.566-1.145,2.211c-0.708-0.404-1.514-0.654-2.387-0.654c-2.681,0-4.855,2.182-4.855,4.862
			c0,2.682,2.195,4.863,4.876,4.863c2.682,0,4.89-2.182,4.89-4.863c0-1.465-0.61-2.767-1.64-3.659
			c0.09-0.189-0.072-0.395,0.042-0.613L31,11.595v-1.221l-5.272-3.763c0.01-0.018-0.277-0.035-0.268-0.051L31,6.707z M25.782,11.735
			c0,2.166-1.761,3.926-3.925,3.926c-2.163,0-3.923-1.76-3.923-3.926c0-2.162,1.76-3.923,3.923-3.923c0.737,0,1.42,0.217,2.01,0.572
			c-0.025,0.068-0.051,0.137-0.068,0.193c-0.199,0.657-1.222,1.784-1.839,2.403c-0.325,0.021-0.584,0.287-0.584,0.617
			c0,0.348,0.28,0.629,0.626,0.629c0.327,0,0.59-0.254,0.617-0.576c0.553-0.555,1.68-1.76,2.024-2.675
			C25.344,9.687,25.782,10.661,25.782,11.735z"/>
		<g>
			<text transform="matrix(1 0 0 1 13.9009 27.0132)" fill="#B3B3B3" font-family="'Arial-BoldMT'" font-size="10">0</text>
		</g>
	</g>
</g>
</svg>
