<?xml version="1.0" encoding="utf-8"?>
<!-- Generator: Adobe Illustrator 16.0.1, SVG Export Plug-In . SVG Version: 6.00 Build 0)  -->
<!DOCTYPE svg PUBLIC "-//W3C//DTD SVG 1.1//EN" "http://www.w3.org/Graphics/SVG/1.1/DTD/svg11.dtd">
<svg version="1.1" id="Layer_1" xmlns="http://www.w3.org/2000/svg" xmlns:xlink="http://www.w3.org/1999/xlink" x="0px" y="0px"
	 width="31.654px" height="29.75px" viewBox="0 0 31.654 29.75" enable-background="new 0 0 31.654 29.75" xml:space="preserve">
<g id="Layer_1_1_">
</g>
<g id="Layer_2">
	<g>
		<g>
			<path fill="#FFFFFF" d="M3.454,29.25c-1.378,0-2.5-1.122-2.5-2.5V3c0-1.378,1.122-2.5,2.5-2.5h24.5c1.378,0,2.5,1.122,2.5,2.5
				v23.75c0,1.378-1.122,2.5-2.5,2.5H3.454z"/>
			<g>
				<path fill="#22B573" d="M27.954,1c1.104,0,2,0.897,2,2v23.75c0,1.104-0.896,2-2,2h-24.5c-1.103,0-2-0.896-2-2V3
					c0-1.103,0.897-2,2-2H27.954 M27.954,0h-24.5c-1.649,0-3,1.35-3,3v23.75c0,1.65,1.351,3,3,3h24.5c1.65,0,3-1.35,3-3V3
					C30.954,1.35,29.604,0,27.954,0L27.954,0z"/>
			</g>
		</g>
		<path fill="#22B573" d="M0.454,17.25v-14c0-1.65,1.351-3,3-3h24.5c1.649,0,3,1.35,3,3v14"/>
		<path fill="#FFFFFF" d="M31.654,6.485V5.546l-5.17-0.13c0.645-1.206,0.864-1.978,0.961-2.32c0.104-0.372,0.009-0.627-0.103-0.775
			c-0.531-0.71-1.717-0.956-2.522-0.648c-0.666,0.253-1.136,0.888-1.103,1.615c0.03,0.643,1.064,0.397,0.995,0.121
			c-0.21-0.839,1.323-1.144,1.796-0.58c0.133,0.155-0.326,0.857-0.406,1.011c-0.218,0.42-0.44,0.838-0.664,1.255
			c-0.415,0.777-0.833,1.567-1.146,2.211c-0.708-0.404-1.514-0.654-2.387-0.654c-2.681,0-4.855,2.181-4.855,4.862
			c0,2.682,2.195,4.864,4.876,4.864c2.684,0,4.892-2.182,4.892-4.864c0-1.466-0.611-2.766-1.642-3.659
			c0.091-0.189,0.235-0.395,0.35-0.614l6.13,4.131v-1.22l-5.579-3.764c0.01-0.017-0.125-0.034-0.116-0.05L31.654,6.485z
			 M25.822,11.513c0,2.165-1.76,3.926-3.925,3.926c-2.163,0-3.923-1.761-3.923-3.926c0-2.163,1.76-3.923,3.923-3.923
			c0.737,0,1.42,0.217,2.011,0.572c-0.025,0.068-0.052,0.137-0.069,0.193c-0.197,0.657-1.222,1.784-1.838,2.403
			c-0.325,0.022-0.585,0.288-0.585,0.618c0,0.348,0.28,0.628,0.627,0.628c0.327,0,0.589-0.254,0.617-0.576
			c0.552-0.554,1.679-1.76,2.023-2.674C25.386,9.464,25.822,10.439,25.822,11.513z"/>
	</g>
</g>
</svg>
