<?xml version="1.0" encoding="utf-8"?>
<!-- Generator: Adobe Illustrator 16.0.0, SVG Export Plug-In . SVG Version: 6.00 Build 0)  -->
<!DOCTYPE svg PUBLIC "-//W3C//DTD SVG 1.1//EN" "http://www.w3.org/Graphics/SVG/1.1/DTD/svg11.dtd">
<svg version="1.1" xmlns="http://www.w3.org/2000/svg" xmlns:xlink="http://www.w3.org/1999/xlink" x="0px" y="0px"
	 width="42.154px" height="30.938px" viewBox="0 0 42.154 30.938" enable-background="new 0 0 42.154 30.938" xml:space="preserve">
<g id="Layer_1">
</g>
<g id="Layer_2">
	<g>
		<g>
			<path fill="#FFFFFF" d="M3.827,29.845c-1.378,0-2.5-1.122-2.5-2.5V3.594c0-1.378,1.122-2.5,2.5-2.5h34.5
				c1.378,0,2.5,1.122,2.5,2.5v23.751c0,1.378-1.122,2.5-2.5,2.5H3.827z"/>
			<g>
				<path fill="#9E005D" d="M38.327,1.594c1.103,0,2,0.897,2,2v23.751c0,1.103-0.897,2-2,2h-34.5c-1.103,0-2-0.897-2-2V3.594
					c0-1.103,0.897-2,2-2H38.327 M38.327,0.594h-34.5c-1.65,0-3,1.35-3,3v23.751c0,1.65,1.35,3,3,3h34.5c1.65,0,3-1.35,3-3V3.594
					C41.327,1.944,39.977,0.594,38.327,0.594L38.327,0.594z"/>
			</g>
		</g>
		<path fill="#9E005D" d="M0.827,17.844v-14c0-1.65,1.35-3,3-3h34.5c1.65,0,3,1.35,3,3v14"/>
		<g>
			<circle fill="#FFFFFF" cx="22.281" cy="3.145" r="1.191"/>
			<path fill="#FFFFFF" d="M25.675,8.243L23.785,7.48l-1.214-2.139c-0.449-0.967-1.059-0.847-1.566-0.617
				c-0.021,0.008-0.044,0.015-0.064,0.024l-2.879,1.092c-0.146,0.07-0.247,0.206-0.274,0.364l-0.396,2.35
				c-0.046,0.271,0.137,0.526,0.406,0.572c0.028,0.005,0.057,0.007,0.084,0.007c0.237,0,0.447-0.171,0.488-0.414l0.355-2.096
				l1.644-0.597c-0.343,0.988-0.773,2.309-0.817,2.837c-0.066,0.801-0.149,2.172-0.211,2.7l-0.105,0.542l-2.151,2.921
				c-0.162,0.221-0.115,0.531,0.105,0.694c0.089,0.064,0.56,0.262,0.894-0.105l2.216-3.012c0.044-0.059,0.074-0.127,0.088-0.198
				l0.203-1.607c0.001-0.005,0.003-0.009,0.005-0.014c0.1-0.483,0.337-0.996,0.896-0.313c0.033,0.042,0.068,0.077,0.104,0.108
				l1.485,1.757l0.701,3.287c0.051,0.233,0.257,0.393,0.485,0.393c0.035,0,0.07-0.004,0.105-0.011
				c0.268-0.058,0.438-0.321,0.381-0.589l-0.529-3.409c-0.018-0.08-0.053-0.154-0.105-0.216l-1.746-1.904
				c-0.152-0.19-0.313-0.469-0.313-0.837c0,0,0.163-2.055,0.388-1.92l0.562,0.991c0.056,0.097,0.143,0.173,0.247,0.215l2.051,0.826
				c0.254,0.104,0.543-0.02,0.646-0.273C26.052,8.636,25.929,8.346,25.675,8.243z"/>
		</g>
	</g>
</g>
</svg>
