<?xml version="1.0" standalone="no"?>
<!DOCTYPE svg PUBLIC "-//W3C//DTD SVG 1.1//EN" "http://www.w3.org/Graphics/SVG/1.1/DTD/svg11.dtd" >
<svg xmlns="http://www.w3.org/2000/svg">
<metadata>
This is a custom SVG webfont generated by Font Squirrel.
Copyright   : FreeUniversal Copyright c Stephen Wilson 2009a modification ofOriginal Font SIL SophiaCopyright c SIL International 19942008
</metadata>
<defs>
<font id="FreeUniversalRegular" horiz-adv-x="1144" >
<font-face units-per-em="2048" ascent="1638" descent="-410" />
<missing-glyph horiz-adv-x="614" />
<glyph unicode=" "  horiz-adv-x="614" />
<glyph unicode="&#x09;" horiz-adv-x="614" />
<glyph unicode="&#xa0;" horiz-adv-x="614" />
<glyph unicode="!" horiz-adv-x="754" d="M268 0v194h206v-194h-206zM268 1478h218l-48 -1132h-122z" />
<glyph unicode="&#x22;" horiz-adv-x="924" d="M144 1478h216l-46 -590h-124zM566 1478h216l-46 -590h-124z" />
<glyph unicode="#" horiz-adv-x="1526" d="M102 490l44 140h290l86 280h-288l42 140h290l130 428h154l-134 -428h270l130 428h152l-132 -428h290l-44 -140h-290l-86 -280h288l-42 -140h-290l-144 -490h-152l146 490h-268l-146 -490h-152l148 490h-292zM586 630h270l86 280h-268z" />
<glyph unicode="$" d="M72 428h206q0 -278 246 -278v510q-54 14 -78 20t-71 20t-69 24t-59 30t-55 39t-41 48t-34 61t-19 75t-8 93q0 174 114 283t320 109v166h104v-164q196 0 291 -112t95 -278h-208q0 120 -37 165t-141 45v-448q44 -14 101 -21t118 -37t111 -70t83 -120t33 -188 q0 -218 -125 -317t-321 -109v-186h-104v184q-224 0 -338 122t-114 334zM300 1062q0 -80 26 -118t75 -50t123 -34v424q-48 0 -85 -8t-61 -16t-40 -31t-23 -34t-11 -44t-4 -43v-46zM628 152q124 2 180 52t56 178q0 54 -8 94t-23 66t-36 44t-47 28t-57 19t-65 17v-498z" />
<glyph unicode="%" horiz-adv-x="1900" d="M102 1094q0 190 103 291t261 101q162 0 265 -101t103 -291t-103 -292t-265 -102q-158 0 -261 102t-103 292zM276 1094q0 -120 41 -189t149 -69q110 0 151 69t41 189t-41 190t-151 70q-108 0 -149 -70t-41 -190zM452 -28l874 1536h140l-872 -1536h-142zM1068 386 q0 190 102 291t262 101t263 -101t103 -291q0 -192 -103 -293t-263 -101t-262 101t-102 293zM1242 386q0 -122 41 -191t149 -69t149 69t41 191t-41 191t-149 69t-149 -69t-41 -191z" />
<glyph unicode="&#x26;" horiz-adv-x="1568" d="M122 424q0 96 26 170t80 125t100 80t118 63q-56 66 -84 104t-57 116t-17 150q22 118 118 197t248 79q164 0 268 -78t104 -206q0 -60 -23 -114t-49 -88t-81 -75t-80 -56t-87 -49q78 -98 179 -203t209 -211q38 126 39 208t-17 228h218q0 -108 -3 -167t-29 -176t-80 -221 q68 -78 192 -188l124 -112h-274q-76 56 -160 146q-12 -10 -38 -28t-90 -56t-158 -63t-194 -25q-210 0 -356 125t-146 325zM326 430q0 -90 90 -186t214 -96q228 0 368 122q-218 188 -456 476q-86 -20 -151 -116t-65 -200zM488 1198q0 -104 118 -248q104 46 154 85t84 109 q38 82 -18 146t-148 64q-98 0 -144 -45t-46 -111z" />
<glyph unicode="'" horiz-adv-x="754" d="M268 1478h218l-48 -590h-122z" />
<glyph unicode="(" horiz-adv-x="736" d="M186 618q0 470 232 890h130q-168 -472 -168 -890q0 -408 168 -888h-130q-232 420 -232 888z" />
<glyph unicode=")" horiz-adv-x="736" d="M188 -270q168 480 168 888q0 418 -168 890h132q230 -422 230 -890q0 -466 -230 -888h-132z" />
<glyph unicode="*" horiz-adv-x="1344" d="M262 1000v168l338 -44l-206 274l148 80l132 -298l130 298l148 -80l-206 -274l338 44v-168l-338 42l206 -274l-148 -82l-130 302l-132 -302l-148 82l206 274z" />
<glyph unicode="+" horiz-adv-x="2048" d="M410 550v128h550v550h128v-550h550v-128h-550v-550h-128v550h-550z" />
<glyph unicode="," horiz-adv-x="564" d="M98 -260l124 512h244l-224 -512h-144z" />
<glyph unicode="-" horiz-adv-x="654" d="M82 416v168h492v-168h-492z" />
<glyph unicode="." horiz-adv-x="564" d="M200 0v252h222v-252h-222z" />
<glyph unicode="/" horiz-adv-x="812" d="M94 -106l484 1614h140l-482 -1614h-142z" />
<glyph unicode="0" d="M102 768q0 120 8 213t37 197t78 172t138 113t211 45t210 -45t137 -113t77 -172t36 -196t8 -214q0 -84 -4 -154t-16 -155t-32 -151t-55 -131t-83 -108t-119 -70t-159 -27q-122 0 -211 51t-138 127t-78 189t-37 211t-8 218zM302 768q0 -138 9 -235t35 -193t84 -146t144 -50 t143 50t83 146t35 193t9 235q0 136 -9 226t-36 175t-83 126t-142 41q-60 0 -104 -19t-74 -58t-49 -86t-29 -116t-13 -135t-3 -154z" />
<glyph unicode="1" d="M266 1062v170q88 54 165 118t109 97t32 31h204v-1478h-190v1232q-114 -80 -320 -170z" />
<glyph unicode="2" d="M126 0v190q260 290 413 461t214 264t61 163q0 134 -52 197t-174 63q-108 0 -162 -62t-70 -198h-208q32 430 440 430q202 0 316 -123t114 -279q0 -48 -8 -88t-26 -85t-49 -93t-78 -109t-111 -133t-149 -168t-193 -212q-34 -38 -52 -58h666v-160h-892z" />
<glyph unicode="3" d="M94 390h218q24 -260 260 -260q104 0 189 75t85 173q0 316 -414 310v164q192 0 291 66t99 214q0 116 -81 167t-175 51q-190 0 -234 -256h-208q26 200 138 307t300 107q206 0 335 -111t129 -279q0 -70 -29 -130t-71 -95t-88 -68t-78 -49q14 -8 60 -32t78 -47t71 -63 t60 -100t21 -138q0 -182 -137 -303t-347 -121q-232 0 -352 124t-120 294z" />
<glyph unicode="4" d="M62 360v216l614 902h226v-948h182v-170h-182v-360h-192v360h-648zM226 530h484v724z" />
<glyph unicode="5" d="M108 360h216q0 -110 68 -166t180 -56q102 0 180 91t78 253q0 350 -242 350q-178 0 -272 -214h-184l26 860h784v-170h-584l-24 -464q12 10 46 45t55 50t73 30t124 15q188 0 295 -145t109 -353q2 -200 -139 -356t-303 -156q-228 0 -357 102t-129 284z" />
<glyph unicode="6" d="M90 500q-4 112 6 202q18 284 34 380q18 94 48 164q38 82 100 138q62 58 148 90q80 30 170 34q128 6 220 -42q80 -44 130 -130q58 -94 62 -210h-196q4 74 -36 134q-30 46 -76 70q-48 26 -108 20q-70 -6 -132 -54q-54 -42 -92 -108q-58 -106 -68 -302q-4 -76 -4 -162 q34 52 72 94q46 46 96 70q60 28 148 26q76 -2 148 -20q80 -22 136 -64q86 -66 124 -190q28 -92 28 -198q0 -112 -36 -202q-50 -130 -168 -202q-112 -68 -254 -66q-160 2 -286 90q-128 90 -180 240q-30 86 -34 198zM322 442q0 -110 26 -170q30 -70 94 -106q62 -36 140 -36 t138 36q66 36 94 106q26 60 26 170t-26 172q-28 68 -92 106q-62 36 -140 36t-140 -36q-66 -38 -94 -106q-26 -62 -26 -172z" />
<glyph unicode="7" d="M116 1314v164h912v-204l-482 -1274h-224l522 1314h-728z" />
<glyph unicode="8" d="M88 378q0 104 44 190t96 129t96 65l44 22q-14 6 -39 21t-76 57t-85 116t-34 166q0 174 134 269t308 95q172 0 306 -95t134 -269q0 -92 -38 -167t-83 -114t-83 -59l-38 -20q12 -4 31 -13t68 -43t86 -76t68 -115t31 -159q0 -108 -45 -190t-118 -126t-153 -66t-166 -22 t-168 22t-156 66t-119 126t-45 190zM282 420q0 -132 72 -210t222 -78q148 0 216 78t68 210q0 128 -75 205t-209 77t-214 -78t-80 -204zM322 1104q0 -110 74 -177t180 -67t180 67t74 177q0 114 -67 180t-187 66t-187 -66t-67 -180z" />
<glyph unicode="9" d="M96 1036q0 78 20 152t67 150t143 123t230 47q96 0 169 -17t125 -44t88 -78t58 -104t33 -136t15 -161t4 -192q0 -162 -19 -290t-70 -252t-155 -193t-256 -69q-196 0 -291 92t-119 288h196q8 -122 63 -172t155 -50q114 0 184 97t89 215t21 214l2 98l-36 -48 q-18 -24 -37 -45t-43 -38t-51 -30t-65 -20t-84 -7q-110 0 -192 33t-127 82t-73 117t-36 123t-8 115zM306 1036q0 -156 60 -235t198 -79q136 0 198 79t62 235t-62 235t-198 79q-138 0 -198 -79t-60 -235z" />
<glyph unicode=":" horiz-adv-x="564" d="M200 0v252h222v-252h-222zM200 772v252h222v-252h-222z" />
<glyph unicode=";" horiz-adv-x="564" d="M98 -260l124 512h244l-224 -512h-144zM200 772v252h222v-252h-222z" />
<glyph unicode="&#x3c;" horiz-adv-x="2048" d="M410 550v128l1228 470v-126l-1098 -408l1098 -408v-126z" />
<glyph unicode="=" horiz-adv-x="2048" d="M410 364v128h1228v-128h-1228zM410 738v126h1228v-126h-1228z" />
<glyph unicode="&#x3e;" horiz-adv-x="2048" d="M410 80v126l1098 408l-1098 408v126l1228 -470v-128z" />
<glyph unicode="?" horiz-adv-x="1058" d="M52 1240q138 268 428 268q184 0 323 -101t139 -271q0 -80 -42 -154t-103 -128t-122 -101t-103 -95t-42 -90v-230h-164v262q0 42 39 86t93 87t109 93t94 122t39 154q0 80 -75 128t-181 44q-48 -2 -69 -3t-60 -10t-62 -25t-53 -46t-54 -76zM346 0v194h204v-194h-204z" />
<glyph unicode="@" horiz-adv-x="2048" d="M122 594q0 202 75 370t200 276t282 167t327 59q426 0 673 -221t247 -635q0 -228 -119 -397t-293 -169q-184 0 -272 194q-52 -94 -123 -139t-185 -45q-154 0 -259 137t-105 339q0 218 103 348t261 130q72 0 123 -14t69 -27t51 -49t45 -46v122h184v-688q26 -92 120 -84 q20 -6 51 8t66 51t59 123t24 206q0 358 -184 515t-520 157q-100 0 -194 -20t-188 -70t-163 -126t-113 -197t-44 -273q0 -368 184 -572t540 -204q128 0 190 6t160 32v-170q-104 -36 -164 -44t-168 -8q-146 0 -275 27t-253 96t-213 174t-144 275t-55 386zM764 544 q0 -350 226 -350q106 0 165 104t59 246q0 138 -57 229t-167 91q-112 0 -169 -91t-57 -229z" />
<glyph unicode="A" horiz-adv-x="1536" d="M30 0l622 1478h224l630 -1478h-218l-160 396h-724l-162 -396h-212zM484 570h558l-282 682z" />
<glyph unicode="B" horiz-adv-x="1378" d="M164 0v1478h594q192 0 318 -93t126 -271q0 -70 -26 -130t-63 -94t-74 -59t-63 -35l-26 -8q12 -4 33 -10t74 -36t93 -68t73 -108t33 -154q0 -174 -132 -293t-312 -119h-648zM370 178h322q162 0 263 72t101 184q0 124 -95 190t-279 66h-312v-512zM370 860h322 q320 0 320 226q0 214 -316 214h-326v-440z" />
<glyph unicode="C" horiz-adv-x="1392" d="M122 730q0 158 32 291t100 246t191 177t291 64q264 0 395 -119t131 -305h-208q0 132 -74 197t-242 65q-406 0 -406 -616q0 -320 100 -456t298 -136q332 0 332 258h208q0 -184 -144 -304t-394 -120q-166 0 -288 61t-190 169t-100 239t-32 289z" />
<glyph unicode="D" horiz-adv-x="1474" d="M164 0v1478h460q162 0 290 -41t209 -110t134 -165t74 -199t21 -221q0 -112 -21 -214t-74 -200t-134 -169t-209 -115t-290 -44h-460zM370 178h258q242 0 381 149t139 415q0 268 -138 413t-382 145h-258v-1122z" />
<glyph unicode="E" horiz-adv-x="1242" d="M164 0v1478h916v-178h-710v-454h688v-178h-688v-490h730v-178h-936z" />
<glyph unicode="F" horiz-adv-x="1166" d="M164 0v1478h860v-178h-654v-454h614v-178h-614v-668h-206z" />
<glyph unicode="G" horiz-adv-x="1558" d="M122 798q0 304 196 507t520 203q138 0 251 -39t178 -100t100 -128t35 -131h-206q0 72 -98 146t-242 74q-264 0 -393 -147t-129 -389q0 -132 26 -242t81 -203t155 -145t236 -52q128 0 242 24l114 24v410h-336v178h542v-714q-128 -48 -282 -75t-258 -27q-732 0 -732 826z " />
<glyph unicode="H" horiz-adv-x="1452" d="M164 0v1478h206v-632h712v632h206v-1478h-206v668h-712v-668h-206z" />
<glyph unicode="I" horiz-adv-x="534" d="M164 0v1478h206v-1478h-206z" />
<glyph unicode="J" horiz-adv-x="1164" d="M122 398h202q6 -246 236 -246q100 0 167 75t67 213v1038h208v-1038q0 -210 -126 -339t-328 -129q-192 0 -309 119t-117 307z" />
<glyph unicode="K" horiz-adv-x="1360" d="M164 0v1478h206v-628l610 628h254l-628 -636l704 -842h-276l-664 780v-780h-206z" />
<glyph unicode="L" horiz-adv-x="1084" d="M164 0v1478h206v-1300h654v-178h-860z" />
<glyph unicode="M" horiz-adv-x="1838" d="M164 0v1478h326l428 -1192l432 1192h326v-1478h-208v1284l-468 -1284h-164l-466 1274v-1274h-206z" />
<glyph unicode="N" horiz-adv-x="1480" d="M164 0v1478h292l654 -1212v1212h206v-1478h-294l-652 1212v-1212h-206z" />
<glyph unicode="O" horiz-adv-x="1584" d="M122 768q0 332 171 536t501 204q328 0 498 -204t170 -536q0 -218 -70 -394t-225 -289t-373 -113t-374 113t-227 289t-71 394zM334 768q0 -98 13 -184t46 -167t84 -138t132 -92t185 -35t185 35t132 92t83 139t45 167t13 183q0 124 -22 221t-72 176t-142 122t-222 43 q-460 0 -460 -562z" />
<glyph unicode="P" horiz-adv-x="1274" d="M164 0v1478h418q96 0 170 -8t153 -35t131 -72t85 -124t33 -187t-33 -187t-85 -124t-131 -72t-153 -35t-170 -8h-212v-626h-206zM370 806h218q192 0 279 56t87 190t-88 191t-278 57h-218v-494z" />
<glyph unicode="Q" horiz-adv-x="1606" d="M122 772q0 224 80 390t230 256q152 90 362 90h2q208 0 360 -90q148 -88 228 -256q78 -164 78 -386q0 -160 -40 -300q-34 -114 -92 -206q-42 -66 -96 -122q78 20 90 22q98 14 162 14q40 0 80 -2v-182l-366 4l-116 -6h-6h-2h-2h-6h-8q-40 0 -88 -6q-14 -2 -42 -7t-44 -7 q-46 -6 -88 -6h-12q-204 0 -360 106q-148 104 -226 286q-78 180 -78 408zM334 768q0 -98 13 -184t46 -167t84 -138t132 -92t185 -35t185 35t132 92t83 139t45 167t13 183q0 124 -22 221t-72 176t-142 122t-222 43q-460 0 -460 -562z" />
<glyph unicode="R" horiz-adv-x="1288" d="M164 0v1478h468q270 0 402 -92t132 -310q0 -188 -278 -320q16 -2 39 -8t75 -46t78 -104q18 -44 45 -251t77 -347h-208q-26 116 -42 213t-26 143q-18 82 -31 130t-36 87t-41 56t-63 28t-85 13t-120 2h-180v-672h-206zM370 850h256q162 0 247 52t85 174q0 124 -85 174 t-247 50h-256v-450z" />
<glyph unicode="S" horiz-adv-x="1354" d="M122 440h210q0 -120 77 -204t197 -84q50 0 91 3t93 10t91 24t74 43t53 68t18 96q0 94 -49 152t-126 83t-172 40t-189 37t-171 60t-126 122t-49 212q0 124 79 219t192 141t233 46q82 0 156 -12t142 -42t118 -75t80 -115t30 -158h-208q0 72 -27 119t-79 69t-104 29t-122 7 q-284 0 -284 -234q0 -76 49 -125t126 -73t172 -41t189 -44t171 -68t126 -126t49 -207q0 -124 -55 -214t-149 -137t-196 -68t-220 -21q-216 0 -353 128t-137 340z" />
<glyph unicode="T" horiz-adv-x="1254" d="M40 1300v178h1174v-178h-482v-1300h-208v1300h-484z" />
<glyph unicode="U" horiz-adv-x="1508" d="M164 660v818h206v-818q0 -160 30 -266t87 -156t119 -68t148 -18q68 0 118 9t103 41t87 86t55 148t21 224v818h208v-818q0 -368 -140 -528t-452 -160t-451 159t-139 529z" />
<glyph unicode="V" horiz-adv-x="1338" d="M30 1478h232l408 -1212l408 1212h230l-526 -1478h-224z" />
<glyph unicode="W" horiz-adv-x="1990" d="M30 1478h218l314 -1170l310 1170h246l312 -1170l312 1170h218l-438 -1478h-184l-342 1232l-342 -1232h-186z" />
<glyph unicode="X" horiz-adv-x="1440" d="M52 0l542 788l-474 690h262l354 -544l342 544h240l-472 -690l544 -788h-262l-422 644l-414 -644h-240z" />
<glyph unicode="Y" horiz-adv-x="1362" d="M30 1478h252l412 -710l406 710h234l-550 -890v-588h-206v588z" />
<glyph unicode="Z" horiz-adv-x="1260" d="M92 0v226l832 1074h-790v178h1014v-224l-830 -1076h852v-178h-1078z" />
<glyph unicode="[" horiz-adv-x="812" d="M218 -406v1884h380v-104h-204v-1676h204v-104h-380z" />
<glyph unicode="\" horiz-adv-x="812" d="M94 1508h142l482 -1614h-140z" />
<glyph unicode="]" horiz-adv-x="812" d="M218 -302h202v1676h-202v104h380v-1884h-380v104z" />
<glyph unicode="^" horiz-adv-x="2048" d="M490 20l470 1230h128l470 -1230h-126l-408 1098l-408 -1098h-126z" />
<glyph unicode="_" horiz-adv-x="1024" d="M0 -152h1024v-112h-1024v112z" />
<glyph unicode="`" horiz-adv-x="470" d="M-52 1580h208l204 -352h-124z" />
<glyph unicode="a" horiz-adv-x="1130" d="M100 270q0 90 35 158t90 109t131 67t148 35t152 9q24 0 70 -2t70 -2q8 37 8 71q0 71 -38 123q-56 76 -190 76q-94 0 -162 -40t-68 -126h-190q0 302 412 302q326 0 394 -174q24 -56 24 -324v-178q0 -298 26 -374h-184q-22 116 -24 150q-52 -62 -84 -93t-92 -57t-136 -26 q-146 0 -269 79t-123 217zM290 294q0 -84 60 -134t144 -50q176 0 238 103t62 291q-102 6 -106 6q-58 0 -118 -9t-128 -30t-110 -67t-42 -110z" />
<glyph unicode="b" horiz-adv-x="1208" d="M144 0v1478h178v-596q108 168 346 168q120 0 210 -50t137 -129t69 -158t22 -157q0 -268 -132 -425t-300 -157q-96 0 -183 37t-125 73l-38 36v-120h-184zM324 536q0 -426 292 -426q126 0 210 116t84 310q0 170 -70 283t-218 113q-144 0 -221 -117t-77 -279z" />
<glyph unicode="c" horiz-adv-x="1066" d="M102 512q0 272 104 405t330 133q224 0 330 -95q91 -81 91 -208q0 -22 -3 -45h-182q4 21 4 40q0 50 -27 85q-37 49 -95 67t-132 18q-108 0 -172 -96t-64 -304q0 -212 68 -306t204 -94q118 0 171 73t53 161h182q0 -160 -98 -266t-310 -106q-454 0 -454 538z" />
<glyph unicode="d" horiz-adv-x="1210" d="M102 492q0 100 23 194t70 178t133 135t198 51q94 0 170 -25t112 -55t56 -54l18 -26v588h186v-1478h-186v116q-14 -16 -40 -40t-105 -63t-159 -39q-184 0 -330 151t-146 367zM290 516q0 -164 82 -280t214 -116q96 0 164 61t97 145t29 178q0 174 -89 299t-225 125 q-94 0 -158 -66t-89 -155t-25 -191z" />
<glyph unicode="e" horiz-adv-x="1140" d="M102 512q0 102 25 193t79 171t151 127t227 47q114 0 200 -34t133 -84t76 -118t37 -122t8 -112l-6 -96h-730q0 -170 66 -274t206 -104q126 0 188 68t72 152h198q-8 -42 -23 -81t-49 -91t-82 -90t-127 -64t-179 -26q-122 0 -217 50t-148 131t-79 172t-26 185zM302 616h532 q3 26 3 50q0 94 -49 165q-62 89 -212 89q-234 0 -274 -304z" />
<glyph unicode="f" horiz-adv-x="674" d="M20 890v134h206v154q0 186 78 255q76 67 229 67h9q72 0 134 -22v-150q-44 24 -100 24h-15q-76 0 -112 -37q-39 -41 -39 -141v-150h246v-134h-246v-890h-184v890h-206z" />
<glyph unicode="g" horiz-adv-x="1208" d="M102 546q0 218 122 361t312 143q74 0 132 -10t87 -19t61 -37t36 -33t28 -39v112h184v-962q0 -206 -130 -337t-368 -131q-118 0 -205 36t-129 91t-60 104t-18 93h192q0 -96 76 -146t178 -50q148 0 214 104t66 364q-26 -32 -44 -49t-60 -49t-97 -48t-123 -16 q-136 0 -231 48t-141 130t-64 163t-18 177zM292 546q0 -178 74 -282t214 -104q152 0 224 109t72 273q0 174 -75 276t-231 102q-278 0 -278 -374z" />
<glyph unicode="h" horiz-adv-x="1172" d="M144 0v1478h184v-584q4 10 17 26t49 50t104 57t152 23q202 0 291 -99t89 -315v-636h-184v646q0 134 -65 203t-151 69q-136 0 -219 -71t-83 -149v-698h-184z" />
<glyph unicode="i" horiz-adv-x="470" d="M126 1290v188h218v-188h-218zM144 0v1024h184v-1024h-184z" />
<glyph unicode="j" horiz-adv-x="586" d="M102 -288q58 2 93 2t50 38t15 146v1126h184v-1188q0 -80 -26 -135t-65 -78t-86 -36q-36 -10 -70 -10q-10 0 -20 1q-29 3 -52 3q-12 0 -23 -1v132zM244 1290v188h216v-188h-216z" />
<glyph unicode="k" horiz-adv-x="1020" d="M144 0v1478h184v-880l388 426h232l-410 -446l442 -578h-242l-410 546v-546h-184z" />
<glyph unicode="l" horiz-adv-x="470" d="M144 0v1478h184v-1478h-184z" />
<glyph unicode="m" horiz-adv-x="1834" d="M144 0v1024h184v-142q122 168 304 168q142 0 216 -42t132 -140q130 182 332 182q380 0 380 -388v-662h-184v662q0 122 -58 190t-174 68q-106 0 -184 -84t-78 -174v-662h-184v662q0 104 -63 181t-165 77q-112 0 -193 -85t-81 -173v-662h-184z" />
<glyph unicode="n" horiz-adv-x="1174" d="M144 0v1024h184v-132q10 8 36 40t51 55t84 43t139 20q394 0 394 -376v-674h-182v678q0 104 -75 177t-177 73q-112 0 -191 -75t-79 -191v-662h-184z" />
<glyph unicode="o" horiz-adv-x="1212" d="M102 512q0 262 142 400t362 138t362 -138t142 -400t-142 -400t-362 -138t-362 138t-142 400zM294 512q0 -162 80 -284t232 -122t232 122t80 284t-80 285t-232 123t-232 -123t-80 -285z" />
<glyph unicode="p" horiz-adv-x="1226" d="M144 -406v1430h184v-130q84 78 156 117t168 39q246 0 359 -146t113 -392q0 -244 -113 -392t-359 -148q-154 0 -324 134v-512h-184zM326 512q0 -174 75 -291t225 -117q152 0 227 117t75 291t-75 291t-227 117q-150 0 -225 -117t-75 -291z" />
<glyph unicode="q" horiz-adv-x="1226" d="M102 512q0 244 114 391t360 147q94 0 166 -39t158 -117v130h184v-1430h-184v512q-170 -134 -324 -134q-246 0 -360 148t-114 392zM300 512q0 -174 75 -291t225 -117q152 0 227 117t75 291t-75 291t-227 117q-150 0 -225 -117t-75 -291z" />
<glyph unicode="r" horiz-adv-x="742" d="M144 0v1024h184v-140q42 74 117 107t257 33v-164q-374 0 -374 -286v-574h-184z" />
<glyph unicode="s" horiz-adv-x="1030" d="M102 296h188q2 -190 214 -190q94 0 165 47t71 133q0 70 -63 106t-154 51t-181 38t-153 94t-63 193q0 118 92 200t294 82q184 0 286 -64t102 -236h-190q0 170 -202 170q-80 0 -136 -42t-56 -110q0 -72 63 -109t153 -53t180 -39t153 -88t63 -177q0 -172 -129 -250t-317 -78 q-172 0 -276 78t-104 244z" />
<glyph unicode="t" horiz-adv-x="716" d="M62 892v132h184v202l184 76v-278h226v-132h-226v-624q0 -88 29 -123q26 -31 72 -31h11q64 2 114 18v-132q-66 -22 -154 -26h-22q-117 0 -173 60q-61 66 -61 234v624h-184z" />
<glyph unicode="u" horiz-adv-x="1172" d="M144 350v674h184v-678q0 -104 74 -176t174 -72q112 0 191 75t79 191v660h184v-1024h-184v132q-100 -158 -312 -158q-204 0 -297 96t-93 280z" />
<glyph unicode="v" horiz-adv-x="1094" d="M30 1024h216l314 -798l310 798h194l-420 -1024h-190z" />
<glyph unicode="w" horiz-adv-x="1666" d="M30 1024h198l240 -798l242 798h246l242 -798l242 798h196l-346 -1024h-184l-272 850l-272 -850h-186z" />
<glyph unicode="x" horiz-adv-x="1120" d="M40 0l408 530l-376 494h234l270 -366l262 366h214l-380 -494l408 -530h-234l-300 404l-290 -404h-216z" />
<glyph unicode="y" horiz-adv-x="1094" d="M30 1024h216l322 -772l298 772h198l-488 -1252l-68 -178h-188l106 292l42 114z" />
<glyph unicode="z" horiz-adv-x="958" d="M102 0v170l546 710h-504v144h712v-170l-548 -710h548v-144h-754z" />
<glyph unicode="{" horiz-adv-x="998" d="M164 456v150q112 26 169 88t68 148t9 175t5 194t43 179q52 106 143 136t235 30v-152q-94 0 -149 -32t-72 -84t-22 -117t2 -132t-1 -129q-14 -150 -51 -222t-123 -158q86 -84 123 -156t51 -220q8 -62 1 -129t-2 -133t22 -117t72 -83t149 -32v-152q-148 0 -239 30t-139 136 q-32 74 -40 181t-7 196t-11 175t-69 147t-167 83z" />
<glyph unicode="|" horiz-adv-x="706" d="M302 -528v2158h104v-2158h-104z" />
<glyph unicode="}" horiz-adv-x="998" d="M164 -340q94 0 149 32t72 84t22 117t-2 133t1 130q14 148 51 220t123 158q-86 84 -123 157t-51 221q-8 62 -1 129t2 132t-22 116t-72 83t-149 32v152q148 0 239 -30t137 -136q34 -74 42 -181t6 -196t11 -175t70 -147t167 -83v-150q-112 -26 -169 -88t-68 -148t-9 -175 t-6 -194t-44 -179q-52 -106 -142 -136t-234 -30v152z" />
<glyph unicode="~" horiz-adv-x="1092" d="M0 400q14 82 116 162t200 80q122 0 262 -41t176 -41q84 0 154 86h186q-14 -82 -116 -161t-204 -79q-120 0 -259 41t-175 41q-82 0 -154 -88h-186z" />
<glyph unicode="&#xa1;" horiz-adv-x="754" d="M268 -406l48 1084h122l48 -1084h-218zM280 830v194h206v-194h-206z" />
<glyph unicode="&#xa2;" d="M146 500q0 84 6 148t32 145t70 133t127 88t197 36q82 0 116 -6l78 236l100 -26l-78 -238q88 -28 138 -106t56 -142l6 -64h-174q-6 146 -70 174l-244 -744q34 -20 90 -20q102 0 163 65t61 167h182q0 -154 -111 -263t-297 -109q-78 0 -136 20l-92 -280l-98 26l92 280 q-214 94 -214 480zM324 516q0 -250 90 -334l234 722q-42 6 -86 6q-238 0 -238 -394z" />
<glyph unicode="&#xa3;" d="M90 0v132h142v670h-142v132h142v252q0 136 128 229t312 93t312 -93t128 -229h-182q0 86 -80 138t-178 52q-100 0 -179 -52t-79 -138v-252h338v-132h-338v-670h658v-132h-982z" />
<glyph unicode="&#xa4;" horiz-adv-x="1268" d="M82 402l210 210q-90 114 -90 262q0 168 94 270l-214 216l74 74l214 -216q110 90 268 90q152 0 260 -92l216 218l74 -74l-214 -214q94 -114 94 -270q0 -154 -92 -264l212 -210l-74 -74l-210 210q-114 -96 -266 -96q-158 0 -272 96l-210 -210zM320 874q0 -132 93 -223 t225 -91q130 0 221 93t91 223q0 128 -91 222t-221 94q-134 0 -226 -92t-92 -226z" />
<glyph unicode="&#xa5;" d="M8 1478h216l352 -730l348 730h214l-222 -438h202v-104h-254l-118 -244h372v-104h-440v-588h-210v588h-440v104h378l-120 244h-258v104h208z" />
<glyph unicode="&#xa6;" horiz-adv-x="706" d="M302 -406v820h104v-820h-104zM302 688v820h104v-820h-104z" />
<glyph unicode="&#xa7;" horiz-adv-x="958" d="M102 532q0 272 256 346q-84 36 -155 119t-71 191q0 110 106 215t264 105q88 0 145 -12t74 -21t67 -43v-140q-128 80 -268 80q-72 0 -132 -53t-60 -117q0 -66 54 -120t130 -95t153 -86t131 -112t54 -153q0 -70 -38 -133t-85 -99t-85 -56l-38 -20q16 -8 42 -24t81 -56 t92 -99t37 -121q0 -170 -134 -277t-284 -107q-52 0 -156 19t-148 51v154q132 -78 242 -80q106 -4 195 56t89 144q0 66 -57 119t-140 91t-165 79t-139 106t-57 149zM270 578q0 -54 45 -95t89 -55l44 -12q90 22 159 76t69 114q0 86 -72 133t-118 47q-64 0 -140 -72t-76 -136z " />
<glyph unicode="&#xa8;" horiz-adv-x="592" d="M0 1290v188h184v-188h-184zM410 1290v188h184v-188h-184z" />
<glyph unicode="&#xa9;" horiz-adv-x="1776" d="M122 740q0 318 224 543t542 225t542 -225t224 -543t-224 -543t-542 -225t-542 225t-224 543zM226 740q0 -278 194 -472t468 -194q276 0 470 194t194 472q0 274 -194 469t-470 195q-274 0 -468 -195t-194 -469zM460 736q0 486 418 486q222 0 312 -91t90 -219h-164 q0 200 -250 200q-100 0 -169 -95t-69 -281q0 -354 270 -354q108 0 163 66t63 144h164q-14 -150 -109 -243t-285 -93q-88 0 -160 22t-136 73t-101 149t-37 236z" />
<glyph unicode="&#xaa;" horiz-adv-x="796" d="M40 494v76h716v-76h-716zM74 908q0 76 35 131t95 82t122 39t134 12q16 0 50 -1t52 -1q18 84 -22 136t-134 52q-66 0 -113 -28t-47 -88h-134q0 212 288 212q228 0 276 -120q16 -44 16 -228v-126q0 -210 18 -262h-128q-12 80 -14 106q-54 -64 -100 -94t-122 -30 q-102 0 -187 55t-85 153zM206 926q0 -60 41 -95t101 -35q124 0 168 72t44 204q-52 4 -74 4q-40 0 -83 -6t-90 -22t-77 -47t-30 -75z" />
<glyph unicode="&#xab;" horiz-adv-x="1142" d="M152 516l280 400h160l-246 -400l246 -400h-160zM550 516l282 400h160l-246 -400l246 -400h-160z" />
<glyph unicode="&#xac;" horiz-adv-x="1268" d="M82 738v122h1106v-472h-124v350h-982z" />
<glyph unicode="&#xad;" horiz-adv-x="654" d="M82 416v168h492v-168h-492z" />
<glyph unicode="&#xae;" horiz-adv-x="1776" d="M122 740q0 318 224 543t542 225t542 -225t224 -543t-224 -543t-542 -225t-542 225t-224 543zM226 740q0 -278 194 -472t468 -194q276 0 470 194t194 472q0 274 -194 469t-470 195q-274 0 -468 -195t-194 -469zM570 278v962h356q178 0 263 -61t85 -203q0 -122 -172 -206 q56 -18 73 -30t41 -72q14 -32 32 -166t50 -224h-148q-14 70 -23 130t-19 102q-6 52 -18 87t-20 57t-33 35t-61 17t-102 4h-162v-432h-142zM712 836h212q104 0 155 30t51 110q0 82 -50 110t-156 28h-212v-278z" />
<glyph unicode="&#xaf;" horiz-adv-x="592" d="M0 1290v142h594v-142h-594z" />
<glyph unicode="&#xb0;" horiz-adv-x="654" d="M102 1250q0 94 66 159t160 65q92 0 158 -65t66 -159t-65 -160t-159 -66t-160 66t-66 160zM184 1250q0 -60 42 -102t102 -42t102 42t42 102t-42 101t-102 41t-102 -41t-42 -101z" />
<glyph unicode="&#xb1;" horiz-adv-x="2048" d="M410 0v126h1228v-126h-1228zM410 734v126h550v368h128v-368h550v-126h-550v-370h-128v370h-550z" />
<glyph unicode="&#xb2;" horiz-adv-x="724" d="M58 718v132q290 220 365 290t75 124q0 70 -34 103t-114 33q-106 0 -122 -122h-150q6 102 81 172t195 70q86 0 147 -23t91 -61t43 -76t13 -80q0 -86 -69 -160t-335 -282h414v-120h-600z" />
<glyph unicode="&#xb3;" horiz-adv-x="760" d="M66 944h134q6 -54 53 -90t123 -36q50 0 110 30t60 64q0 82 -57 113t-171 31v110q96 0 148 28t52 106q0 50 -51 72t-95 20q-132 -8 -146 -110h-132q0 114 84 170t202 56q142 0 216 -55t74 -145q0 -68 -37 -111t-121 -77q84 -22 129 -66t45 -134q0 -96 -97 -160t-217 -64 q-132 0 -216 67t-90 181z" />
<glyph unicode="&#xb4;" horiz-adv-x="470" d="M110 1228l206 352h206l-286 -352h-126z" />
<glyph unicode="&#xb5;" horiz-adv-x="1306" d="M144 -406v1430h184v-678q0 -104 74 -176t174 -72q110 0 190 75t80 191v660h184v-756q0 -88 29 -123t83 -31q64 2 114 18v-132q-76 -26 -154 -26q-116 -2 -170 36t-76 136q-104 -172 -322 -172q-132 0 -206 52v-432h-184z" />
<glyph unicode="&#xb6;" horiz-adv-x="1146" d="M102 1072q0 96 41 176t105 128t133 75t131 27h512v-80h-122v-1726h-104v1726h-184v-1726h-102v1048q-66 0 -132 18t-131 56t-106 110t-41 168z" />
<glyph unicode="&#xb7;" horiz-adv-x="564" d="M172 570v252h222v-252h-222z" />
<glyph unicode="&#xb8;" horiz-adv-x="512" d="M94 -376q118 -26 218 -26q148 0 148 76q0 62 -61 93t-123 29h-60v204h80v-102q308 0 308 -222q0 -78 -95 -126t-219 -48q-76 0 -196 18v104z" />
<glyph unicode="&#xb9;" horiz-adv-x="594" d="M114 1266v112q70 22 138 70l66 50h126v-780h-130v646q-110 -82 -200 -98z" />
<glyph unicode="&#xba;" horiz-adv-x="858" d="M68 494v76h722v-76h-722zM72 1076q0 184 99 280t253 96t253 -96t99 -280t-99 -281t-253 -97t-253 97t-99 281zM206 1076q0 -114 55 -200t163 -86q106 0 163 86t57 200q0 112 -57 198t-163 86q-108 0 -163 -85t-55 -199z" />
<glyph unicode="&#xbb;" horiz-adv-x="1142" d="M152 116l244 400l-244 400h160l280 -400l-280 -400h-160zM550 116l244 400l-244 400h160l282 -400l-282 -400h-160z" />
<glyph unicode="&#xbc;" horiz-adv-x="1638" d="M114 1266v112q70 22 138 70l66 50h126v-780h-130v646q-110 -82 -200 -98zM242 -28l872 1536h142l-874 -1536h-140zM858 194v108l356 496h144v-494h166v-110h-166v-194h-132v194h-368zM978 304h248v338z" />
<glyph unicode="&#xbd;" horiz-adv-x="1638" d="M110 1266v112q72 22 138 70l68 50h124v-780h-130v646q-110 -82 -200 -98zM240 -28l872 1536h142l-874 -1536h-140zM928 0v130q296 226 368 292t72 122q0 70 -34 103t-114 33q-106 0 -122 -122h-150q6 102 81 172t195 70q162 0 228 -72t66 -168q0 -88 -67 -159t-337 -283 h414v-118h-600z" />
<glyph unicode="&#xbe;" horiz-adv-x="1638" d="M66 944h134q6 -54 53 -90t123 -36q50 0 110 30t60 64q0 82 -57 113t-171 31v110q96 0 148 28t52 106q0 50 -51 72t-95 20q-132 -8 -146 -110h-132q0 114 84 170t202 56q142 0 216 -55t74 -145q0 -68 -37 -111t-121 -77q84 -22 129 -66t45 -134q0 -96 -97 -160t-217 -64 q-132 0 -216 67t-90 181zM340 -28l872 1536h142l-872 -1536h-142zM908 194v108l356 496h142v-494h166v-110h-166v-194h-130v194h-368zM1028 304h248v338z" />
<glyph unicode="&#xbf;" horiz-adv-x="1058" d="M116 -34q0 80 42 152t103 123t122 95t103 90t42 88v172h164v-204q0 -54 -38 -106t-93 -97t-110 -91t-93 -105t-38 -123q0 -82 75 -129t181 -43q48 2 69 3t59 10t61 25t53 46t54 76l136 -86q-138 -268 -428 -268q-184 0 -324 101t-140 271zM508 830v194h204v-194h-204z " />
<glyph unicode="&#xc0;" horiz-adv-x="1536" d="M30 0l622 1478h224l630 -1478h-218l-160 396h-724l-162 -396h-212zM440 2034h208l204 -350h-124zM484 570h558l-282 682z" />
<glyph unicode="&#xc1;" horiz-adv-x="1536" d="M30 0l622 1478h224l630 -1478h-218l-160 396h-724l-162 -396h-212zM484 570h558l-282 682zM684 1682l204 350h208l-288 -350h-124z" />
<glyph unicode="&#xc2;" horiz-adv-x="1536" d="M30 0l622 1478h224l630 -1478h-218l-160 396h-724l-162 -396h-212zM472 1682l184 348h224l184 -348h-122l-174 224l-174 -224h-122zM484 570h558l-282 682z" />
<glyph unicode="&#xc3;" horiz-adv-x="1536" d="M30 0l622 1478h224l630 -1478h-218l-160 396h-724l-162 -396h-212zM472 1720q8 94 59 148t113 54q68 0 148 -38t96 -38q44 0 64 84h112q-8 -96 -60 -149t-114 -53q-66 0 -145 38t-95 38q-46 0 -66 -84h-112zM484 570h558l-282 682z" />
<glyph unicode="&#xc4;" horiz-adv-x="1536" d="M30 0l622 1478h224l630 -1478h-218l-160 396h-724l-162 -396h-212zM484 570h558l-282 682zM496 1740v190h184v-190h-184zM906 1740v190h184v-190h-184z" />
<glyph unicode="&#xc5;" horiz-adv-x="1536" d="M30 0l622 1478h224l630 -1478h-218l-160 396h-724l-162 -396h-212zM484 570h558l-282 682zM524 1904q0 94 66 160t160 66t159 -66t65 -160q0 -92 -65 -158t-159 -66t-160 65t-66 159zM606 1904q0 -60 42 -101t102 -41t101 41t41 101t-41 102t-101 42t-102 -42t-42 -102z " />
<glyph unicode="&#xc6;" horiz-adv-x="2000" d="M30 0l786 1478h1042v-178h-710v-454h690v-178h-690v-490h730v-178h-936v396h-474l-220 -396h-218zM570 570h372v742z" />
<glyph unicode="&#xc7;" horiz-adv-x="1392" d="M122 730q0 158 32 291t100 246t191 177t291 64q264 0 395 -119t131 -305h-208q0 132 -74 197t-242 65q-406 0 -406 -616q0 -320 100 -456t298 -136q332 0 332 258h208q0 -180 -140 -300t-382 -124v-74q306 0 306 -222q0 -80 -77 -127t-195 -47t-238 18v104 q116 -26 218 -26q150 0 150 76q0 62 -62 93t-122 29h-62v178q-148 12 -256 77t-170 171t-90 232t-28 276z" />
<glyph unicode="&#xc8;" horiz-adv-x="1242" d="M164 0v1478h916v-178h-710v-454h688v-178h-688v-490h730v-178h-936zM334 2032h206l206 -350h-126z" />
<glyph unicode="&#xc9;" horiz-adv-x="1242" d="M164 0v1478h916v-178h-710v-454h688v-178h-688v-490h730v-178h-936zM520 1680l204 350h208l-286 -350h-126z" />
<glyph unicode="&#xca;" horiz-adv-x="1242" d="M164 0v1478h916v-178h-710v-454h688v-178h-688v-490h730v-178h-936zM324 1682l184 348h226l184 -348h-124l-174 224l-174 -224h-122z" />
<glyph unicode="&#xcb;" horiz-adv-x="1242" d="M164 0v1478h916v-178h-710v-454h688v-178h-688v-490h730v-178h-936zM324 1742v190h184v-190h-184zM734 1742v190h184v-190h-184z" />
<glyph unicode="&#xcc;" horiz-adv-x="534" d="M-22 2032h206l206 -350h-126zM164 0v1478h206v-1478h-206z" />
<glyph unicode="&#xcd;" horiz-adv-x="534" d="M146 1684l204 350h208l-288 -350h-124zM164 0v1478h206v-1478h-206z" />
<glyph unicode="&#xce;" horiz-adv-x="534" d="M-28 1682l184 348h224l186 -348h-124l-174 224l-174 -224h-122zM164 0v1478h206v-1478h-206z" />
<glyph unicode="&#xcf;" horiz-adv-x="534" d="M-28 1740v190h184v-190h-184zM164 0v1478h206v-1478h-206zM380 1740v190h186v-190h-186z" />
<glyph unicode="&#xd0;" horiz-adv-x="1474" d="M0 654v170h164v654h460q162 0 290 -41t209 -110t134 -165t74 -199t21 -221q0 -112 -21 -214t-74 -200t-134 -169t-209 -115t-290 -44h-460v654h-164zM370 178h258q242 0 381 149t139 415q0 268 -138 413t-382 145h-258v-476h346v-170h-346v-476z" />
<glyph unicode="&#xd1;" horiz-adv-x="1480" d="M164 0v1478h292l654 -1212v1212h206v-1478h-294l-652 1212v-1212h-206zM430 1720q8 94 59 148t113 54q68 0 148 -38t98 -38q40 0 64 84h112q-8 -96 -60 -149t-114 -53q-66 0 -145 38t-97 38q-42 0 -66 -84h-112z" />
<glyph unicode="&#xd2;" horiz-adv-x="1584" d="M122 768q0 332 171 536t501 204q328 0 498 -204t170 -536q0 -218 -70 -394t-225 -289t-373 -113t-374 113t-227 289t-71 394zM334 768q0 -98 13 -184t46 -167t84 -138t132 -92t185 -35t185 35t132 92t83 139t45 167t13 183q0 124 -22 221t-72 176t-142 122t-222 43 q-460 0 -460 -562zM506 2032h206l206 -350h-126z" />
<glyph unicode="&#xd3;" horiz-adv-x="1584" d="M122 768q0 332 171 536t501 204q328 0 498 -204t170 -536q0 -218 -70 -394t-225 -289t-373 -113t-374 113t-227 289t-71 394zM334 768q0 -98 13 -184t46 -167t84 -138t132 -92t185 -35t185 35t132 92t83 139t45 167t13 183q0 124 -22 221t-72 176t-142 122t-222 43 q-460 0 -460 -562zM670 1682l204 350h208l-288 -350h-124z" />
<glyph unicode="&#xd4;" horiz-adv-x="1584" d="M122 768q0 332 171 536t501 204q328 0 498 -204t170 -536q0 -218 -70 -394t-225 -289t-373 -113t-374 113t-227 289t-71 394zM334 768q0 -98 13 -184t46 -167t84 -138t132 -92t185 -35t185 35t132 92t83 139t45 167t13 183q0 124 -22 221t-72 176t-142 122t-222 43 q-460 0 -460 -562zM498 1682l184 348h226l184 -348h-124l-174 224l-174 -224h-122z" />
<glyph unicode="&#xd5;" horiz-adv-x="1584" d="M122 768q0 332 171 536t501 204q328 0 498 -204t170 -536q0 -218 -70 -394t-225 -289t-373 -113t-374 113t-227 289t-71 394zM334 768q0 -98 13 -184t46 -167t84 -138t132 -92t185 -35t185 35t132 92t83 139t45 167t13 183q0 124 -22 221t-72 176t-142 122t-222 43 q-460 0 -460 -562zM498 1720q8 94 59 148t113 54q68 0 148 -38t98 -38q40 0 62 84h114q-8 -96 -60 -149t-114 -53q-68 0 -146 38t-96 38q-44 0 -66 -84h-112z" />
<glyph unicode="&#xd6;" horiz-adv-x="1584" d="M122 768q0 332 171 536t501 204q328 0 498 -204t170 -536q0 -218 -70 -394t-225 -289t-373 -113t-374 113t-227 289t-71 394zM334 768q0 -98 13 -184t46 -167t84 -138t132 -92t185 -35t185 35t132 92t83 139t45 167t13 183q0 124 -22 221t-72 176t-142 122t-222 43 q-460 0 -460 -562zM532 1740v190h184v-190h-184zM942 1740v190h184v-190h-184z" />
<glyph unicode="&#xd7;" horiz-adv-x="2048" d="M472 142l470 472l-470 474l78 80l474 -476l474 476l78 -80l-470 -474l470 -472l-78 -80l-474 474l-474 -474z" />
<glyph unicode="&#xd8;" horiz-adv-x="1586" d="M122 -106l192 286q-192 222 -192 588q0 332 171 536t501 204q202 0 350 -82l166 248l154 -102l-176 -264q174 -198 174 -540q0 -218 -70 -394t-225 -289t-373 -113q-200 0 -340 88l-178 -266zM334 768q0 -266 92 -420l616 924q-104 58 -248 58q-460 0 -460 -562zM558 212 q98 -60 236 -60q104 0 185 35t132 92t83 139t45 167t13 183q0 234 -78 370z" />
<glyph unicode="&#xd9;" horiz-adv-x="1508" d="M164 660v818h206v-818q0 -160 30 -266t87 -156t119 -68t148 -18q68 0 118 9t103 41t87 86t55 148t21 224v818h208v-818q0 -368 -140 -528t-452 -160t-451 159t-139 529zM466 2032h208l204 -350h-124z" />
<glyph unicode="&#xda;" horiz-adv-x="1508" d="M164 660v818h206v-818q0 -160 30 -266t87 -156t119 -68t148 -18q68 0 118 9t103 41t87 86t55 148t21 224v818h208v-818q0 -368 -140 -528t-452 -160t-451 159t-139 529zM628 1682l206 350h206l-286 -350h-126z" />
<glyph unicode="&#xdb;" horiz-adv-x="1508" d="M164 660v818h206v-818q0 -160 30 -266t87 -156t119 -68t148 -18q68 0 118 9t103 41t87 86t55 148t21 224v818h208v-818q0 -368 -140 -528t-452 -160t-451 159t-139 529zM456 1682l186 348h224l184 -348h-122l-174 224l-174 -224h-124z" />
<glyph unicode="&#xdc;" horiz-adv-x="1508" d="M164 660v818h206v-818q0 -160 30 -266t87 -156t119 -68t148 -18q68 0 118 9t103 41t87 86t55 148t21 224v818h208v-818q0 -368 -140 -528t-452 -160t-451 159t-139 529zM492 1714v188h184v-188h-184zM902 1714v188h184v-188h-184z" />
<glyph unicode="&#xdd;" horiz-adv-x="1362" d="M30 1478h252l412 -710l406 710h234l-550 -890v-588h-206v588zM582 1684l204 350h208l-288 -350h-124z" />
<glyph unicode="&#xde;" horiz-adv-x="1274" d="M164 0v1478h206v-276h212q96 0 170 -8t153 -35t131 -72t85 -124t33 -187t-33 -187t-85 -124t-131 -72t-153 -35t-170 -8h-212v-350h-206zM370 530h218q192 0 279 56t87 190t-88 191t-278 57h-218v-494z" />
<glyph unicode="&#xdf;" d="M110 0v1192q0 118 147 218t301 96q420 -8 420 -318q0 -68 -41 -131t-89 -101t-89 -82t-41 -80q0 -34 44 -65t106 -62t125 -72t107 -114t44 -169q0 -172 -89 -256t-253 -82q-152 2 -265 99t-113 215h190q0 -10 7 -28t27 -55t74 -62t130 -25q36 0 59 11t34 30t16 43t4 51 t-1 55q0 64 -45 112t-110 81t-129 69t-109 95t-45 139q0 64 41 117t89 83t89 69t41 77q0 78 -41 142t-141 64q-62 0 -130 -21t-124 -72t-56 -117v-1146h-184z" />
<glyph unicode="&#xe0;" horiz-adv-x="1130" d="M100 270q0 90 35 158t90 109t131 67t148 35t152 9q24 0 70 -2t70 -2q26 118 -30 194t-190 76q-94 0 -162 -40t-68 -126h-190q0 302 412 302q326 0 394 -174q24 -56 24 -324v-178q0 -298 26 -374h-184q-22 116 -24 150q-52 -62 -84 -93t-92 -57t-136 -26q-146 0 -269 79 t-123 217zM290 294q0 -84 60 -134t144 -50q176 0 238 103t62 291q-102 6 -106 6q-58 0 -118 -9t-128 -30t-110 -67t-42 -110zM316 1558h206l206 -350h-126z" />
<glyph unicode="&#xe1;" horiz-adv-x="1130" d="M100 270q0 90 35 158t90 109t131 67t148 35t152 9q24 0 70 -2t70 -2q26 118 -30 194t-190 76q-94 0 -162 -40t-68 -126h-190q0 302 412 302q326 0 394 -174q24 -56 24 -324v-178q0 -298 26 -374h-184q-22 116 -24 150q-52 -62 -84 -93t-92 -57t-136 -26q-146 0 -269 79 t-123 217zM290 294q0 -84 60 -134t144 -50q176 0 238 103t62 291q-102 6 -106 6q-58 0 -118 -9t-128 -30t-110 -67t-42 -110zM414 1228l204 352h208l-288 -352h-124z" />
<glyph unicode="&#xe2;" horiz-adv-x="1130" d="M100 270q0 90 35 158t90 109t131 67t148 35t152 9q24 0 70 -2t70 -2q26 118 -30 194t-190 76q-94 0 -162 -40t-68 -126h-190q0 302 412 302q326 0 394 -174q24 -56 24 -324v-178q0 -298 26 -374h-184q-22 116 -24 150q-52 -62 -84 -93t-92 -57t-136 -26q-146 0 -269 79 t-123 217zM264 1228l184 348h226l184 -348h-122l-174 226l-174 -226h-124zM290 294q0 -84 60 -134t144 -50q176 0 238 103t62 291q-102 6 -106 6q-58 0 -118 -9t-128 -30t-110 -67t-42 -110z" />
<glyph unicode="&#xe3;" horiz-adv-x="1130" d="M100 270q0 90 35 158t90 109t131 67t148 35t152 9q24 0 70 -2t70 -2q26 118 -30 194t-190 76q-94 0 -162 -40t-68 -126h-190q0 302 412 302q326 0 394 -174q24 -56 24 -324v-178q0 -298 26 -374h-184q-22 116 -24 150q-52 -62 -84 -93t-92 -57t-136 -26q-146 0 -269 79 t-123 217zM268 1270q8 92 59 146t113 54q68 0 148 -38t98 -38q42 0 64 84h112q-8 -94 -60 -147t-114 -53q-66 0 -145 38t-97 38q-42 0 -66 -84h-112zM290 294q0 -84 60 -134t144 -50q176 0 238 103t62 291q-102 6 -106 6q-58 0 -118 -9t-128 -30t-110 -67t-42 -110z" />
<glyph unicode="&#xe4;" horiz-adv-x="1130" d="M100 270q0 90 35 158t90 109t131 67t148 35t152 9q24 0 70 -2t70 -2q26 118 -30 194t-190 76q-94 0 -162 -40t-68 -126h-190q0 302 412 302q326 0 394 -174q24 -56 24 -324v-178q0 -298 26 -374h-184q-22 116 -24 150q-52 -62 -84 -93t-92 -57t-136 -26q-146 0 -269 79 t-123 217zM268 1290v188h184v-188h-184zM290 294q0 -84 60 -134t144 -50q176 0 238 103t62 291q-102 6 -106 6q-58 0 -118 -9t-128 -30t-110 -67t-42 -110zM678 1290v188h184v-188h-184z" />
<glyph unicode="&#xe5;" horiz-adv-x="1130" d="M100 270q0 90 35 158t90 109t131 67t148 35t152 9q24 0 70 -2t70 -2q26 118 -30 194t-190 76q-94 0 -162 -40t-68 -126h-190q0 302 412 302q326 0 394 -174q24 -56 24 -324v-178q0 -298 26 -374h-184q-22 116 -24 150q-52 -62 -84 -93t-92 -57t-136 -26q-146 0 -269 79 t-123 217zM290 294q0 -84 60 -134t144 -50q176 0 238 103t62 291q-102 6 -106 6q-58 0 -118 -9t-128 -30t-110 -67t-42 -110zM340 1454q0 94 66 160t160 66t159 -66t65 -160t-66 -160t-158 -66q-94 0 -160 66t-66 160zM422 1454q0 -60 42 -102t102 -42t101 42t41 102 t-41 102t-101 42t-102 -42t-42 -102z" />
<glyph unicode="&#xe6;" horiz-adv-x="1864" d="M102 276q0 352 496 360q64 2 144 -5t96 -7q-6 284 -262 290q-230 4 -230 -148h-190q0 160 113 222t315 62q124 0 216 -51t150 -201q30 82 71 135t95 77t104 32t120 8q114 0 200 -46t133 -120t70 -153t23 -157l-2 -86h-736q0 -152 67 -263t209 -111q210 0 258 208h184 q-20 -162 -126 -255t-274 -93q-162 0 -271 73t-137 211q-88 -284 -446 -284q-180 0 -285 84t-105 218zM286 306q-2 -94 70 -142t170 -46q162 4 224 68q52 62 79 131t21 181q-78 8 -160 6q-60 0 -119 -8t-128 -28t-112 -61t-45 -101zM1038 624h536q-12 148 -73 221t-191 73 q-114 0 -186 -74t-86 -220z" />
<glyph unicode="&#xe7;" horiz-adv-x="1066" d="M102 512q0 272 104 405t330 133q224 0 330 -95t88 -253h-182q14 76 -23 125t-95 67t-132 18q-108 0 -172 -96t-64 -304q0 -212 68 -306t204 -94q118 0 171 73t53 161h182q0 -158 -96 -264t-304 -108v-76q306 0 306 -222q0 -78 -95 -126t-217 -48q-78 0 -198 18v104 q116 -26 218 -26q150 0 150 76q0 62 -62 93t-122 29h-62v182q-380 38 -380 534z" />
<glyph unicode="&#xe8;" horiz-adv-x="1140" d="M102 512q0 102 25 193t79 171t151 127t227 47q114 0 200 -34t133 -84t76 -118t37 -122t8 -112l-6 -96h-730q0 -170 66 -274t206 -104q126 0 188 68t72 152h198q-8 -42 -23 -81t-49 -91t-82 -90t-127 -64t-179 -26q-122 0 -217 50t-148 131t-79 172t-26 185zM278 1580h208 l204 -352h-124zM302 616h532q16 126 -46 215t-212 89q-234 0 -274 -304z" />
<glyph unicode="&#xe9;" horiz-adv-x="1140" d="M102 512q0 102 25 193t79 171t151 127t227 47q114 0 200 -34t133 -84t76 -118t37 -122t8 -112l-6 -96h-730q0 -170 66 -274t206 -104q126 0 188 68t72 152h198q-8 -42 -23 -81t-49 -91t-82 -90t-127 -64t-179 -26q-122 0 -217 50t-148 131t-79 172t-26 185zM302 616h532 q16 126 -46 215t-212 89q-234 0 -274 -304zM444 1228l206 352h206l-286 -352h-126z" />
<glyph unicode="&#xea;" horiz-adv-x="1140" d="M102 512q0 102 25 193t79 171t151 127t227 47q114 0 200 -34t133 -84t76 -118t37 -122t8 -112l-6 -96h-730q0 -170 66 -274t206 -104q126 0 188 68t72 152h198q-8 -42 -23 -81t-49 -91t-82 -90t-127 -64t-179 -26q-122 0 -217 50t-148 131t-79 172t-26 185zM270 1228 l184 348h226l184 -348h-122l-174 226l-174 -226h-124zM302 616h532q16 126 -46 215t-212 89q-234 0 -274 -304z" />
<glyph unicode="&#xeb;" horiz-adv-x="1140" d="M102 512q0 102 25 193t79 171t151 127t227 47q114 0 200 -34t133 -84t76 -118t37 -122t8 -112l-6 -96h-730q0 -170 66 -274t206 -104q126 0 188 68t72 152h198q-8 -42 -23 -81t-49 -91t-82 -90t-127 -64t-179 -26q-122 0 -217 50t-148 131t-79 172t-26 185zM270 1290v188 h184v-188h-184zM302 616h532q16 126 -46 215t-212 89q-234 0 -274 -304zM680 1290v188h184v-188h-184z" />
<glyph unicode="&#xec;" horiz-adv-x="470" d="M-52 1580h208l204 -352h-124zM144 0v1024h184v-1024h-184z" />
<glyph unicode="&#xed;" horiz-adv-x="470" d="M110 1228l206 352h206l-286 -352h-126zM144 0v1024h184v-1024h-184z" />
<glyph unicode="&#xee;" horiz-adv-x="470" d="M-62 1228l184 348h226l184 -348h-122l-174 226l-174 -226h-124zM144 0v1024h184v-1024h-184z" />
<glyph unicode="&#xef;" horiz-adv-x="470" d="M-62 1290v188h184v-188h-184zM144 0v1024h184v-1024h-184zM348 1290v188h184v-188h-184z" />
<glyph unicode="&#xf0;" horiz-adv-x="1204" d="M102 512q0 242 119 389t381 149q22 0 56 -1t40 -1q-8 36 -51 80t-81 70l-38 26l-350 -152l-38 88l284 126l-240 158l102 60l276 -154l330 150l44 -86l-278 -130q18 -10 48 -29t107 -88t135 -150t106 -217t48 -288q0 -110 -29 -205t-88 -170t-157 -119t-226 -44 q-244 0 -372 145t-128 393zM290 512q0 -176 79 -288t233 -112q108 0 181 63t102 149t29 188q2 186 -83 293t-229 107q-140 0 -226 -114t-86 -286z" />
<glyph unicode="&#xf1;" horiz-adv-x="1174" d="M144 0v1024h184v-132q10 8 36 40t51 55t84 43t139 20q394 0 394 -376v-674h-182v678q0 104 -75 177t-177 73q-112 0 -191 -75t-79 -191v-662h-184zM290 1270q8 92 60 146t112 54q68 0 149 -38t97 -38q42 0 64 84h112q-8 -94 -60 -147t-114 -53q-66 0 -145 38t-97 38 q-44 0 -64 -84h-114z" />
<glyph unicode="&#xf2;" horiz-adv-x="1212" d="M102 512q0 262 142 400t362 138t362 -138t142 -400t-142 -400t-362 -138t-362 138t-142 400zM294 512q0 -162 80 -284t232 -122t232 122t80 284t-80 285t-232 123t-232 -123t-80 -285zM314 1580h206l204 -352h-124z" />
<glyph unicode="&#xf3;" horiz-adv-x="1212" d="M102 512q0 262 142 400t362 138t362 -138t142 -400t-142 -400t-362 -138t-362 138t-142 400zM294 512q0 -162 80 -284t232 -122t232 122t80 284t-80 285t-232 123t-232 -123t-80 -285zM480 1228l204 352h206l-286 -352h-124z" />
<glyph unicode="&#xf4;" horiz-adv-x="1212" d="M102 512q0 262 142 400t362 138t362 -138t142 -400t-142 -400t-362 -138t-362 138t-142 400zM294 512q0 -162 80 -284t232 -122t232 122t80 284t-80 285t-232 123t-232 -123t-80 -285zM310 1228l184 348h224l186 -348h-124l-174 226l-174 -226h-122z" />
<glyph unicode="&#xf5;" horiz-adv-x="1212" d="M102 512q0 262 142 400t362 138t362 -138t142 -400t-142 -400t-362 -138t-362 138t-142 400zM294 512q0 -162 80 -284t232 -122t232 122t80 284t-80 285t-232 123t-232 -123t-80 -285zM310 1270q8 92 59 146t113 54q68 0 148 -38t98 -38q40 0 62 84h114q-8 -94 -60 -147 t-114 -53q-68 0 -147 38t-95 38q-44 0 -66 -84h-112z" />
<glyph unicode="&#xf6;" horiz-adv-x="1212" d="M102 512q0 262 142 400t362 138t362 -138t142 -400t-142 -400t-362 -138t-362 138t-142 400zM294 512q0 -162 80 -284t232 -122t232 122t80 284t-80 285t-232 123t-232 -123t-80 -285zM310 1290v188h184v-188h-184zM718 1290v188h186v-188h-186z" />
<glyph unicode="&#xf7;" horiz-adv-x="2048" d="M410 550v128h1228v-128h-1228zM902 284q0 52 35 88t87 36t87 -36t35 -88q0 -50 -36 -85t-86 -35t-86 35t-36 85zM902 944q0 52 36 88t86 36t86 -36t36 -88t-35 -87t-87 -35t-87 35t-35 87z" />
<glyph unicode="&#xf8;" horiz-adv-x="1212" d="M64 -90l168 216q-130 126 -130 386q0 262 142 400t362 138q144 0 254 -58l162 218l104 -76l-164 -220q148 -128 148 -402q0 -262 -142 -400t-362 -138q-160 0 -278 72l-160 -212zM294 512q0 -128 50 -232l426 586q-66 54 -164 54q-152 0 -232 -123t-80 -285zM424 170 q80 -64 182 -64q152 0 232 122t80 284q0 134 -60 254z" />
<glyph unicode="&#xf9;" horiz-adv-x="1172" d="M144 350v674h184v-678q0 -104 74 -176t174 -72q112 0 191 75t79 191v660h184v-1024h-184v132q-100 -158 -312 -158q-204 0 -297 96t-93 280zM294 1580h208l204 -352h-124z" />
<glyph unicode="&#xfa;" horiz-adv-x="1172" d="M144 350v674h184v-678q0 -104 74 -176t174 -72q112 0 191 75t79 191v660h184v-1024h-184v132q-100 -158 -312 -158q-204 0 -297 96t-93 280zM462 1228l206 352h206l-286 -352h-126z" />
<glyph unicode="&#xfb;" horiz-adv-x="1172" d="M144 350v674h184v-678q0 -104 74 -176t174 -72q112 0 191 75t79 191v660h184v-1024h-184v132q-100 -158 -312 -158q-204 0 -297 96t-93 280zM290 1228l186 348h224l184 -348h-122l-174 226l-174 -226h-124z" />
<glyph unicode="&#xfc;" horiz-adv-x="1172" d="M144 350v674h184v-678q0 -104 74 -176t174 -72q112 0 191 75t79 191v660h184v-1024h-184v132q-100 -158 -312 -158q-204 0 -297 96t-93 280zM290 1290v188h186v-188h-186zM700 1290v188h184v-188h-184z" />
<glyph unicode="&#xfd;" horiz-adv-x="1094" d="M30 1024h216l322 -772l298 772h198l-488 -1252q-38 -94 -92 -142t-158 -48q-188 0 -272 186l144 76q18 -38 53 -70t73 -30q30 2 52 36t50 106l42 114zM458 1228l206 352h206l-286 -352h-126z" />
<glyph unicode="&#xfe;" horiz-adv-x="1226" d="M144 -406v1884h184v-584q84 78 156 117t168 39q246 0 359 -146t113 -392q0 -244 -113 -392t-359 -148q-154 0 -324 134v-512h-184zM326 512q0 -174 75 -291t225 -117q152 0 227 117t75 291t-75 291t-227 117q-150 0 -225 -117t-75 -291z" />
<glyph unicode="&#xff;" horiz-adv-x="1094" d="M30 1024h216l322 -772l298 772h198l-488 -1252q-28 -68 -44 -124l-16 -54h-190q68 206 100 292l42 114zM252 1290v188h184v-188h-184zM662 1290v188h184v-188h-184z" />
<glyph unicode="&#x152;" horiz-adv-x="2058" d="M122 740q0 328 182 548t486 220q106 0 222 -30h924v-178h-636v-454h594v-178h-594v-490h636v-178h-950q-110 -28 -196 -28q-304 0 -486 220t-182 548zM334 740q0 -252 115 -420t341 -168q90 0 166 28t108 56l30 30v966q-16 10 -43 27t-107 44t-154 27q-152 0 -258 -85 t-152 -214t-46 -291z" />
<glyph unicode="&#x153;" horiz-adv-x="1916" d="M102 512q0 264 133 401t351 137q294 0 390 -218q66 120 159 169t229 49q104 0 186 -32t130 -80t80 -114t43 -126t11 -122l-4 -92h-756q0 -44 11 -98t40 -122t94 -113t155 -45q116 0 184 63t76 157h198q-22 -160 -150 -256t-310 -96q-306 0 -384 248q-98 -248 -382 -248 q-216 0 -350 138t-134 400zM294 512q0 -166 71 -286t221 -120t222 120t72 286t-72 287t-222 121t-221 -121t-71 -287zM1054 616h560q0 304 -258 304q-82 0 -145 -36t-94 -88t-47 -99t-16 -81z" />
<glyph unicode="&#x178;" horiz-adv-x="1362" d="M30 1478h252l412 -710l406 710h234l-550 -890v-588h-206v588zM386 1742v190h184v-190h-184zM794 1742v190h184v-190h-184z" />
<glyph unicode="&#x2c6;" horiz-adv-x="592" d="M0 1228l184 348h226l184 -348h-122l-176 226l-174 -226h-122z" />
<glyph unicode="&#x2dc;" horiz-adv-x="592" d="M0 1270q8 92 59 146t113 54q68 0 148 -38t98 -38q40 0 64 84h112q-8 -94 -60 -147t-114 -53q-66 0 -145 38t-97 38q-42 0 -66 -84h-112z" />
<glyph unicode="&#x3bc;" horiz-adv-x="1306" d="M144 -406v1430h184v-678q0 -104 74 -176t174 -72q110 0 190 75t80 191v660h184v-756q0 -88 29 -123t83 -31q64 2 114 18v-132q-76 -26 -154 -26q-116 -2 -170 36t-76 136q-104 -172 -322 -172q-132 0 -206 52v-432h-184z" />
<glyph unicode="&#x2000;" horiz-adv-x="1064" />
<glyph unicode="&#x2001;" horiz-adv-x="2130" />
<glyph unicode="&#x2002;" horiz-adv-x="1064" />
<glyph unicode="&#x2003;" horiz-adv-x="2130" />
<glyph unicode="&#x2004;" horiz-adv-x="710" />
<glyph unicode="&#x2005;" horiz-adv-x="532" />
<glyph unicode="&#x2006;" horiz-adv-x="354" />
<glyph unicode="&#x2007;" horiz-adv-x="354" />
<glyph unicode="&#x2008;" horiz-adv-x="266" />
<glyph unicode="&#x2009;" horiz-adv-x="426" />
<glyph unicode="&#x200a;" horiz-adv-x="118" />
<glyph unicode="&#x2010;" horiz-adv-x="654" d="M82 416v168h492v-168h-492z" />
<glyph unicode="&#x2011;" horiz-adv-x="654" d="M82 416v168h492v-168h-492z" />
<glyph unicode="&#x2012;" horiz-adv-x="654" d="M82 416v168h492v-168h-492z" />
<glyph unicode="&#x2013;" horiz-adv-x="1024" d="M0 432v132h1024v-132h-1024z" />
<glyph unicode="&#x2014;" horiz-adv-x="2048" d="M0 432v132h2048v-132h-2048z" />
<glyph unicode="&#x2018;" horiz-adv-x="520" d="M76 966l226 512h142l-122 -512h-246z" />
<glyph unicode="&#x2019;" horiz-adv-x="520" d="M76 966l122 512h246l-224 -512h-144z" />
<glyph unicode="&#x201a;" horiz-adv-x="520" d="M76 -260l122 512h246l-224 -512h-144z" />
<glyph unicode="&#x201c;" horiz-adv-x="892" d="M76 966l226 512h142l-122 -512h-246zM450 966l226 512h144l-124 -512h-246z" />
<glyph unicode="&#x201d;" horiz-adv-x="892" d="M76 966l122 512h246l-224 -512h-144zM450 966l124 512h246l-226 -512h-144z" />
<glyph unicode="&#x201e;" horiz-adv-x="892" d="M76 -260l122 512h246l-224 -512h-144zM450 -260l124 512h246l-226 -512h-144z" />
<glyph unicode="&#x2022;" horiz-adv-x="614" d="M72 696q0 100 68 168t168 68q98 0 166 -69t68 -167t-68 -167t-166 -69t-167 69t-69 167z" />
<glyph unicode="&#x2026;" horiz-adv-x="2048" d="M102 0v252h222v-252h-222zM914 0v252h220v-252h-220zM1724 0v252h222v-252h-222z" />
<glyph unicode="&#x202f;" horiz-adv-x="426" />
<glyph unicode="&#x2039;" horiz-adv-x="740" d="M152 516l280 400h160l-246 -400l246 -400h-160z" />
<glyph unicode="&#x203a;" horiz-adv-x="740" d="M152 116l244 400l-244 400h160l280 -400l-280 -400h-160z" />
<glyph unicode="&#x205f;" horiz-adv-x="532" />
<glyph unicode="&#x2122;" horiz-adv-x="1350" d="M102 1382v76h438v-76h-168v-482h-102v482h-168zM650 900v560h152l146 -422l144 422h158v-560h-104v454l-158 -454h-76l-160 450v-450h-102z" />
<glyph unicode="&#xe000;" horiz-adv-x="1025" d="M0 1025h1025v-1025h-1025v1025z" />
<glyph unicode="&#xfb01;" horiz-adv-x="1176" d="M20 890v134h206v154q0 186 78 255t238 67q72 0 134 -22v-150q-44 24 -100 24q-88 4 -127 -37t-39 -141v-150h246v-134h-246v-890h-184v890h-206zM840 1290v188h200v-188h-200zM848 0v1024h184v-1024h-184z" />
<glyph unicode="&#xfb02;" horiz-adv-x="1174" d="M20 890v134h206v154q0 186 78 255t238 67q72 0 134 -22v-150q-44 24 -100 24q-88 4 -127 -37t-39 -141v-150h246v-134h-246v-890h-184v890h-206zM848 0v1478h184v-1478h-184z" />
<glyph unicode="&#xfb03;" horiz-adv-x="1818" d="M1474 1290v188h218v-188h-218zM1492 0v1024h184v-1024h-184zM694 890v134h206v154q0 186 78 255q76 67 229 67h9q72 0 134 -22v-150q-44 24 -100 24h-15q-76 0 -112 -37q-39 -41 -39 -141v-150h246v-134h-246v-890h-184v890h-206zM20 890v134h206v154q0 186 78 255 q76 67 229 67h9q72 0 134 -22v-150q-44 24 -100 24h-15q-76 0 -112 -37q-39 -41 -39 -141v-150h246v-134h-246v-890h-184v890h-206z" />
<glyph unicode="&#xfb04;" horiz-adv-x="1818" d="M1492 0v1478h184v-1478h-184zM694 890v134h206v154q0 186 78 255q76 67 229 67h9q72 0 134 -22v-150q-44 24 -100 24h-15q-76 0 -112 -37q-39 -41 -39 -141v-150h246v-134h-246v-890h-184v890h-206zM20 890v134h206v154q0 186 78 255q76 67 229 67h9q72 0 134 -22v-150 q-44 24 -100 24h-15q-76 0 -112 -37q-39 -41 -39 -141v-150h246v-134h-246v-890h-184v890h-206z" />
</font>
</defs>
</svg>
